<?xml version="1.0" encoding="UTF-8"?>
<svg width="24px" height="24px" viewBox="0 0 24 24" version="1.1" xmlns="http://www.w3.org/2000/svg" xmlns:xlink="http://www.w3.org/1999/xlink">
    <title>配置icon</title>
    <g id="配置icon" stroke="none" stroke-width="1" fill="none" fill-rule="evenodd">
        <g id="编组-12" stroke="#FFFFFF" stroke-width="2">
            <g id="配置icon" transform="translate(0.000000, 1.000000)">
                <path d="M11.5,0.443375673 C11.8094011,0.264742878 12.1905989,0.264742878 12.5,0.443375673 L12.5,0.443375673 L20.8923048,5.28867513 C21.0470054,5.37799153 21.1720054,5.50518149 21.2583302,5.65470054 C21.3446551,5.80421959 21.3923048,5.97606774 21.3923048,6.15470054 L21.3923048,6.15470054 L21.3923048,15.8452995 C21.3923048,16.0239323 21.3446551,16.1957804 21.2583302,16.3452995 C21.1720054,16.4948185 21.0470054,16.6220085 20.8923048,16.7113249 L20.8923048,16.7113249 L12.5,21.5566243 C12.1905989,21.7352571 11.8094011,21.7352571 11.5,21.5566243 L11.5,21.5566243 L3.10769515,16.7113249 C2.95299462,16.6220085 2.82799462,16.4948185 2.74166975,16.3452995 C2.65534489,16.1957804 2.60769515,16.0239323 2.60769515,15.8452995 L2.60769515,15.8452995 L2.60769515,6.15470054 C2.60769515,5.97606774 2.65534489,5.80421959 2.74166975,5.65470054 C2.82799462,5.50518149 2.95299462,5.37799153 3.10769515,5.28867513 L3.10769515,5.28867513 Z" id="多边形" transform="translate(12.000000, 11.000000) rotate(-270.000000) translate(-12.000000, -11.000000) "></path>
                <circle id="椭圆形" cx="12" cy="11" r="4.45454545"></circle>
            </g>
        </g>
    </g>
</svg>