<svg width="24" height="24" xmlns="http://www.w3.org/2000/svg"><path d="M11.995 7.966a.855.855 0 01-.857-.852V5.409c0-.47.384-.852.857-.852s.857.381.857.852v1.705c0 .47-.384.852-.857.852zm-5.452-.663l1.211 1.205a.85.85 0 01-.374 1.444.86.86 0 01-.837-.239L5.331 8.508A.85.85 0 015.71 7.07a.86.86 0 01.834.233zM5.14 13.08c.473 0 .857.381.857.852 0 .47-.384.852-.857.852H3.428a.855.855 0 01-.857-.852c0-.47.383-.852.857-.852H5.14zm15.421 0c.473 0 .857.381.857.852 0 .47-.384.852-.857.852H18.85a.855.855 0 01-.857-.852c0-.47.384-.852.857-.852h1.713zM18.66 7.303a.85.85 0 010 1.205l-1.212 1.205a.857.857 0 01-1.211 0 .85.85 0 010-1.205l1.211-1.205a.86.86 0 011.212 0zm1.458 12.879a10.152 10.152 0 002.159-6.25c0-5.64-4.612-10.227-10.281-10.227-5.669 0-10.281 4.588-10.281 10.227 0 2.266.762 4.459 2.159 6.25h16.244zM11.995 2c6.624 0 11.994 5.342 11.994 11.932 0 3.06-1.168 5.842-3.073 7.954H3.073C1.17 19.774 0 16.992 0 13.932 0 7.342 5.371 2 11.995 2zm-.808 11.128c.446-.443 2.38-1.648 2.827-1.205.446.444-.765 2.368-1.212 2.812a1.146 1.146 0 01-1.926-.501c-.105-.398.014-.82.311-1.106z" fill="#FFF" fill-rule="nonzero"/></svg>