<?xml version="1.0" encoding="UTF-8"?>
<svg width="27px" height="27px" viewBox="0 0 27 27" version="1.1" xmlns="http://www.w3.org/2000/svg" xmlns:xlink="http://www.w3.org/1999/xlink">
    <title>编辑icon</title>
    <g id="编辑icon" stroke="none" stroke-width="1" fill="none" fill-rule="evenodd">
        <g>
            <path d="M13.5,27 C6.04414285,27 0,20.9558572 0,13.5 C0,6.04414285 6.04414285,0 13.5,0 C20.9558572,0 27,6.04414285 27,13.5 C27,20.9558572 20.9558572,27 13.5,27 Z" id="形状备份" fill-opacity="0" fill="#888D98" fill-rule="nonzero"></path>
            <g id="编辑" transform="translate(7.200000, 5.400000)" stroke="#666666" stroke-width="1.8">
                <g id="编组-11" transform="translate(0.000000, 0.111661)">
                    <path d="M1.53917165,13.9855101 L4.42171665,13.6274915 C4.68685345,13.5945609 4.93341797,13.4740902 5.12233851,13.2851696 L11.7603887,6.64711945 C12.8941888,5.51331935 12.8941888,3.67506617 11.7603887,2.54126607 C10.6265886,1.40746597 8.78833541,1.40746597 7.65453531,2.54126607 L0.888349662,9.30745172 C0.701367283,9.4944341 0.581382486,9.7379423 0.547040566,10.0001358 L0.201428135,12.6388161 C0.11535786,13.2959451 0.578292391,13.8984271 1.23542135,13.9844974 C1.33621981,13.9976999 1.43828739,13.9980402 1.53917165,13.9855101 Z" id="路径-6"></path>
                </g>
            </g>
        </g>
    </g>
</svg>