<svg width="272" height="272" viewBox="0 0 272 272" xmlns="http://www.w3.org/2000/svg"><g fill="none" fill-rule="evenodd"><circle fill="none" opacity=".1" cx="136" cy="136" r="136"/><g fill-rule="nonzero"><path d="M39.914 191.608l71.49 45.522c5.674 3.624 12.256 4.756 18.837 3.17l99.633-23.78c2.27-.453 3.631-2.717 2.95-4.982-.227-1.133-.908-2.038-2.042-2.718l-91.462-50.278c-.908-.453-2.043-.68-2.95-.453l-95.321 26.045c-2.27.68-3.404 2.718-2.95 4.982.227 1.133.907 2.039 1.815 2.492z" fill="#222326"/><path fill="#373A47" d="M121 111.537L119.868 235 49 189.875V101z"/><path fill="#18191D" d="M120.91 235l105.086-24.626L231 117.293 120 113z"/><path fill="#414A70" d="M79 88.225L154 72v48l-68.202-16.225z"/><path d="M182 190c0 3.314 1.567 6 3.5 6s3.5-2.686 3.5-6-1.567-6-3.5-6-3.5 2.686-3.5 6z" fill="#EAF2FF"/><path d="M186 197c-2.857 0-5-2.817-5-6.5s2.143-6.5 5-6.5 5 2.817 5 6.5-2.143 6.5-5 6.5zm0-10.833c-1.19 0-2.619 1.733-2.619 4.333s1.429 4.333 2.619 4.333c1.19 0 2.619-1.733 2.619-4.333s-1.429-4.333-2.619-4.333z" fill="#DCE7F9"/><path d="M239.165 106.264c8.144-.934 25.13 3.736 25.827 3.736.465-.934-19.777-12.375-30.946-24.984-1.163-.7-3.025 22.182 5.119 21.248z" fill="#414A70"/><path d="M265.207 112h-.664c-.22 0-.442 0-1.99-.444-4.423-1.112-16.144-4-22.337-3.112-1.769.223-3.98-.222-5.529-3.777-2.432-5.334-1.99-16.89-.22-18.223l.663-.444 1.105.667c6.856 7.777 17.693 15.333 24.328 19.777 5.307 3.556 5.75 4 5.307 5.112l-.663.444zm-23-6c5.307 0 12.827 1.556 17.471 2.667-.221-.223-.663-.445-.885-.667-6.192-4.222-16.365-11.333-23.442-18.889-.664 3.333-.664 12 1.548 15.556.885 1.555 1.99 1.555 2.654 1.333.884.222 1.77 0 2.654 0zM120.727 237L48 190.192v-59.824h2.273v58.682l69.772 44.753.455-123.3L233 100l-5.682 112.112L120.728 237zm1.818-124.67l-.454 121.93 102.954-24.203 5.455-107.774-107.955 10.047z" fill="#333"/><path d="M120.057 115.153c5.47 1.822-14.36 37.79-20.97 44.847-4.786-3.642-20.97-12.976-30.087-21.399 5.015-10.472 45.587-25.269 51.057-23.448z" fill="#414A70"/><path d="M163.302 183c-.256 0-.767-.246-1.023-.491-.512-.491-.256-1.228.256-1.719l5.372-4.42-5.116-6.384c-.512-.49-.256-1.227.255-1.718.512-.491 1.28-.246 1.791.245l5.884 7.12c.512.492.256 1.229-.256 1.72l-6.395 5.156c-.256.491-.512.491-.768.491zM208.372 173c-.465 0-.93 0-7.907-4.026-.232-.223-.465-.447-.465-.67 0-.224 0-.671.233-.895l5.348-6.038c.466-.448 1.163-.448 1.628-.224.465.447.465 1.118.233 1.565l-4.419 4.92c4.651 2.684 5.582 2.908 5.814 3.132.698 0 1.163.447 1.163 1.118-.233.67-.93 1.118-1.628 1.118z" fill="#DCE7F9"/><path fill="#373A47" d="M156 71l39 23.273L156 103z"/><path fill="#414A70" d="M156 72.777L195.572 96 234 87.348 156 45z"/><path fill="#18191D" d="M42 68.227L78.459 88 155 71.41V43z"/><path d="M123 112.804c12.678 25.125 24.902 38.932 36.448 41.196 11.998-2.49 46.182-11.318 102.552-26.483-17.432-17.43-26.487-31.01-27.166-40.517-12.225 3.395-49.578 11.997-111.834 25.804z" fill="#414A70"/><path d="M158.77 155h-.229c-12.077-2.525-24.382-16.525-37.37-42.459-.228-.23-.228-.689 0-.918l.684-.689c62.436-14 100.262-22.72 112.34-25.934.227 0 .683 0 .91.23.228.229.456.459.456.918.684 9.18 9.799 22.95 27.117 40.393.228.23.455.689.228 1.148 0 .459-.456.688-.912.918-56.056 14.918-90.92 23.868-103.225 26.393.228 0 .228 0 0 0zm-34.865-42.23c12.305 24.099 24.154 37.41 34.864 39.935 12.077-2.525 46.03-11.246 100.946-26.164-16.178-16.525-24.837-29.377-26.205-39.016-12.988 3.442-49.903 11.934-109.605 25.245z" fill="#333"/><path d="M40.797 68c10.405 5.477 57.452 30.122 80.07 43.13 2.263 7.074-25.106 49.062-34.154 46.78-6.56-2.966-32.797-18.94-78.713-48.15C26.321 95.156 37.404 81.236 40.797 68z" fill="#414A70"/><path d="M88.178 160c-.457 0-.685 0-1.14-.228-6.841-2.962-32.836-18.685-79.582-48.08-.228-.227-.456-.455-.456-.91 0-.456.228-.684.456-.912 18.242-14.355 29.187-28.027 32.608-41.016 0-.227.228-.683.684-.683.228-.228.684-.228.912 0 11.401 5.696 58.375 30.306 80.722 43.066.228.228.456.456.456.684 1.824 5.696-12.086 28.71-23.26 40.56-4.788 5.012-8.436 7.519-11.4 7.519zm-77.986-49.446c45.15 28.483 71.373 44.433 77.757 47.167.685.228 3.649 0 10.262-7.063 11.401-12.077 23.258-32.813 22.802-37.826-21.89-12.304-66.127-35.319-79.125-42.155-3.876 12.76-14.366 26.205-31.696 39.877zM153 43h3v61h-3z" fill="#333"/><path d="M234.003 87c-.228 0-.455 0-.455-.227l-78.35-42.5L41.423 69.955c-.682.227-1.136-.228-1.363-.91-.227-.681.227-1.136.908-1.363L154.972 42h.681l78.804 42.727c.454.228.681.91.454 1.591 0 .455-.454.682-.908.682z" fill="#333"/></g></g></svg>