<?xml version="1.0" encoding="UTF-8"?>
<svg width="272px" height="272px" viewBox="0 0 272 272" version="1.1" xmlns="http://www.w3.org/2000/svg" xmlns:xlink="http://www.w3.org/1999/xlink">
    <title>编组 6</title>
    <g id="页面-1" stroke="none" stroke-width="1" fill="none" fill-rule="evenodd">
        <g id="1.1首页-收藏+其他备份" transform="translate(-582.000000, -219.000000)">
            <g id="编组-6" transform="translate(582.000000, 219.000000)">
                <circle id="椭圆形" fill-opacity="0" fill="#236EFF" opacity="0.100000001" cx="136" cy="136" r="136"></circle>
                <g id="空态" transform="translate(7.000000, 42.000000)" fill-rule="nonzero">
                    <path d="M32.9142535,149.607724 L104.404384,195.12998 C110.078204,198.753642 116.659835,199.886036 123.241466,198.300684 L222.873743,174.520401 C225.143271,174.067443 226.504987,171.802654 225.824129,169.537866 C225.597176,168.405471 224.916318,167.499556 223.781554,166.820119 L132.319578,116.541806 C131.411766,116.088849 130.277002,115.86237 129.369191,116.088849 L34.0490173,142.13392 C31.7794893,142.813357 30.6447255,144.851667 31.0986311,147.116456 C31.3255838,148.24885 32.0064422,149.154766 32.9142535,149.607724 Z" id="路径" fill="#E7E7E7"></path>
                    <polygon id="路径" fill="#DCE7F9" points="114 69.5367522 112.867924 193 42 147.875214 42 59"></polygon>
                    <polygon id="路径" fill="#FFFFFF" points="113.909836 193 218.995902 168.374074 224 75.2925926 113 71"></polygon>
                    <polygon id="路径" fill="#EAF2FF" points="72 46.2253522 147 30 147 78 78.7975831 61.774648"></polygon>
                    <path d="M175,148 C175,151.313708 176.567003,154 178.5,154 C180.432997,154 182,151.313708 182,148 C182,144.686292 180.432997,142 178.5,142 C176.567003,142 175,144.686292 175,148 L175,148 Z" id="路径" fill="#EAF2FF"></path>
                    <path d="M179,155 C176.142857,155 174,152.183333 174,148.5 C174,144.816667 176.142857,142 179,142 C181.857143,142 184,144.816667 184,148.5 C184,152.183333 181.857143,155 179,155 Z M179,144.166667 C177.809524,144.166667 176.380952,145.9 176.380952,148.5 C176.380952,151.1 177.809524,152.833333 179,152.833333 C180.190476,152.833333 181.619048,151.1 181.619048,148.5 C181.619048,145.9 180.190476,144.166667 179,144.166667 Z" id="形状" fill="#DCE7F9"></path>
                    <path d="M232.165016,64.2640394 C240.308696,63.3300494 257.294084,68 257.992114,68 C258.457467,67.06601 238.214607,55.6246308 227.046132,43.0157639 C225.882749,42.3152713 224.021337,65.1980297 232.165016,64.2640394 L232.165016,64.2640394 Z" id="路径" fill="#EAF2FF"></path>
                    <path d="M258.206874,70 L257.543407,70 C257.322252,70 257.101096,70 255.553007,69.5555555 C251.129895,68.4444444 239.408647,65.5555554 233.21629,66.4444444 C231.447045,66.6666666 229.235488,66.2222223 227.687399,62.6666667 C225.254687,57.3333333 225.696999,45.7777778 227.466244,44.4444445 L228.129711,44 L229.235488,44.6666666 C236.091312,52.4444445 246.927938,60 253.562606,64.4444445 C258.870341,68 259.312652,68.4444446 258.870341,69.5555555 L258.206874,70 L258.206874,70 Z M235.20669,64 C240.514425,64 248.033716,65.5555556 252.677984,66.6666666 C252.456828,66.4444444 252.014517,66.2222221 251.793361,65.9999999 C245.601004,61.7777777 235.427846,54.6666665 228.350866,47.1111111 C227.687399,50.4444443 227.687399,59.1111111 229.898955,62.6666667 C230.783578,64.2222223 231.889356,64.2222223 232.552823,64 C233.437445,64.2222221 234.322068,64 235.20669,64 Z" id="形状" fill="#CCCCCC"></path>
                    <path d="M113.727273,195 L41,148.191667 L41,88.3683333 L43.2727273,88.3683333 L43.2727273,147.05 L113.045455,191.803333 L113.5,68.5033332 L226,58 L220.318182,170.111667 L113.727273,195 Z M115.545455,70.3299999 L115.090909,192.26 L218.045455,168.056667 L223.5,60.2833332 L115.545455,70.3299999 L115.545455,70.3299999 Z" id="形状" fill="#CCCCCC"></path>
                    <path d="M113.056999,73.1533239 C118.527392,74.9745087 98.6972181,110.942909 92.0871602,118 C87.3005665,114.35763 71.1173214,105.024058 62,96.6010785 C67.0145267,86.1292657 107.586606,71.3321392 113.056999,73.1533239 L113.056999,73.1533239 Z" id="路径" fill="#DCE7F9"></path>
                    <path d="M156.302191,141 C156.046367,141 155.534717,140.754461 155.278892,140.508923 C154.767243,140.017845 155.023068,139.281229 155.534717,138.790152 L160.907036,134.370455 L155.790542,127.98645 C155.278892,127.495372 155.534717,126.758756 156.046366,126.267679 C156.558016,125.776601 157.32549,126.02214 157.83714,126.513218 L163.721108,133.633839 C164.232757,134.124917 163.976932,134.861533 163.465283,135.35261 L157.069665,140.508923 C156.813841,141 156.558016,141 156.302191,141 Z" id="路径" fill="#DCE7F9"></path>
                    <path d="M201.372093,131 C200.906977,131 200.44186,131 193.465116,126.974419 C193.232558,126.750776 193,126.527132 193,126.303489 C193,126.079846 193,125.632559 193.232558,125.408916 L198.581395,119.370544 C199.046512,118.923258 199.744186,118.923258 200.209302,119.146901 C200.674419,119.594188 200.674419,120.265118 200.44186,120.712405 L196.023256,125.632559 C200.674419,128.316279 201.604651,128.539923 201.837209,128.763566 C202.534884,128.763566 203,129.210853 203,129.881783 C202.767442,130.552713 202.069768,131 201.372093,131 L201.372093,131 Z" id="路径" fill="#DCE7F9"></path>
                    <polygon id="路径" fill="#DCE7F9" points="149 29 188 52.2727273 149 61"></polygon>
                    <polygon id="路径" fill="#EAF2FF" points="149 30.7767857 188.571848 54 227 45.3482142 149 3"></polygon>
                    <polygon id="路径" fill="#FFFFFF" points="35 26.2272727 71.4589178 46 148 29.4090908 148 1"></polygon>
                    <path d="M116,70.804054 C128.677524,95.929054 140.90228,109.736487 152.447883,112 C164.446254,109.510135 198.630293,100.682432 255,85.5168919 C237.568404,68.0878379 228.513029,54.5067567 227.833876,45 C215.609121,48.3952702 178.2557,56.9966216 116,70.804054 Z" id="路径" fill="#EAF2FF"></path>
                    <path d="M151.769338,113 L151.541469,113 C139.464396,110.47541 127.159453,96.4754099 114.170902,70.5409837 C113.943033,70.3114755 113.943033,69.8524591 114.170902,69.6229508 L114.85451,68.9344262 C177.290701,54.9344262 215.117007,46.2131147 227.19408,43 C227.42195,43 227.877688,43 228.105558,43.2295083 C228.333427,43.4590164 228.561296,43.6885248 228.561296,44.147541 C229.244904,53.327869 238.359677,67.0983606 255.677744,84.5409836 C255.905613,84.7704918 256.133483,85.2295082 255.905613,85.6885247 C255.905613,86.1475411 255.449875,86.3770492 254.994136,86.6065573 C198.938286,101.52459 164.074281,110.47541 151.769338,113 C151.997207,113 151.997207,113 151.769338,113 Z M116.905334,70.7704918 C129.210276,94.8688524 141.059481,108.180328 151.769338,110.704918 C163.846412,108.180328 197.798939,99.4590165 252.715443,84.5409836 C236.536722,68.0163935 227.877688,55.1639344 226.510472,45.5245902 C213.521921,48.967213 176.607093,57.4590164 116.905334,70.7704918 L116.905334,70.7704918 Z" id="形状" fill="#CCCCCC"></path>
                    <path d="M33.797229,26 C44.2018673,31.4767741 91.2489266,56.1222573 113.867705,69.1295955 C116.129583,76.2037619 88.760861,118.192363 79.7133495,115.910374 C73.1539036,112.943788 46.9161204,96.9698637 1,67.760402 C19.3212106,53.1556713 30.4044121,39.2355373 33.797229,26 L33.797229,26 Z" id="路径" fill="#EAF2FF"></path>
                    <path d="M81.1775145,118 C80.721461,118 80.4934344,118 80.0373811,117.772136 C73.1965793,114.809907 47.2015325,99.0873063 0.456053506,69.6928793 C0.228026851,69.4650156 0,69.2371517 0,68.7814241 C0,68.3256965 0.228026655,68.0978328 0.456053506,67.8699691 C18.6981916,53.5145511 29.6434746,39.8427244 33.0638754,26.8544891 C33.0638754,26.6266254 33.2919021,26.1708978 33.7479556,26.1708978 C33.9759822,25.9430341 34.4320357,25.9430341 34.6600624,26.1708978 C46.0613987,31.8674922 93.0349043,56.47678 115.381524,69.2371517 C115.60955,69.4650154 115.837577,69.6928793 115.837577,69.920743 C117.661791,75.6173374 103.752161,98.6315789 92.578851,110.480495 C87.7902897,115.493498 84.1418622,118 81.1775145,118 Z M3.19237415,68.5535604 C48.341666,97.0365324 74.5647396,112.986997 80.9494879,115.721362 C81.633568,115.949226 84.5979155,115.721362 91.2106905,108.657585 C102.612027,96.580805 114.469417,75.8452013 114.013363,70.8321982 C92.1227975,58.5275542 47.8856127,35.5133129 34.8880892,28.6773993 C31.0116347,41.437771 20.5224054,54.8817337 3.19237415,68.5535604 Z" id="形状" fill="#CCCCCC"></path>
                    <polygon id="路径" fill="#CCCCCC" points="146 1 149 1 149 62 146 62"></polygon>
                    <path d="M227.002507,45 C226.775407,45 226.548307,45 226.548307,44.7727271 L148.198794,2.27272715 L34.4216756,27.9545455 C33.7403755,28.1818182 33.2861754,27.7272729 33.0590754,27.0454545 C32.8319755,26.3636363 33.2861754,25.9090908 33.9674755,25.6818182 L147.971694,0 L148.652994,0 L227.456707,42.7272727 C227.910908,42.9545453 228.138008,43.6363635 227.910908,44.3181818 C227.910908,44.7727273 227.456707,45 227.002507,45 Z" id="路径" fill="#CCCCCC"></path>
                </g>
            </g>
        </g>
    </g>
</svg>