<svg width="118" height="118" viewBox="0 0 118 118" xmlns="http://www.w3.org/2000/svg"><g fill="none" fill-rule="evenodd"><rect width="118" height="118" rx="22.5"/><g fill="#FFF"><path d="M65 89c0-10.38 8.325-18.817 18.662-18.997L84 70v-.045C89.607 69.45 94 64.738 94 59c0-5.461-3.98-9.993-9.198-10.853l9.916-17.176C105.994 35.286 114 46.208 114 59c0 16.569-13.431 30-30 30H65zM54 28.971c0 10.381-8.325 18.817-18.662 18.997l-.338.003v.045c-5.605.504-10 5.216-10 10.955 0 5.462 3.98 9.993 9.198 10.853L24.282 87C13.006 82.686 5 71.764 5 58.971c0-16.568 13.431-30 30-30h19zM84 29c1.234 0 2.45.074 3.644.22L74.791 51.48 62.256 73.533a30.776 30.776 0 0 1-2 3.125l-.224.387-.032-.042C54.526 84.288 45.814 89 36 89c-1.196 0-2.376-.07-3.536-.206L48.273 61.41l9.352-16.718C62.706 35.345 72.612 29 84 29z"/></g></g></svg>