<svg width="32" height="28" xmlns="http://www.w3.org/2000/svg"><g fill="none" fill-rule="evenodd"><path d="M5.87 0h3.495c1.218 0 1.63.034 2.09.124.46.089.868.233 1.282.453.414.219.756.451 1.704 1.217l2.318 1.872c.948.766 1.29.998 1.704 1.217.414.22.822.364 1.281.453.46.09.873.124 2.091.124h6.032c1.159 0 1.58.12 2.003.347.424.227.756.56.983.983.226.424.347.844.347 2.003v11.74c0 2.319-.241 3.16-.695 4.007a4.725 4.725 0 01-1.965 1.965c-.848.454-1.688.695-4.006.695H6.666c-2.318 0-3.158-.241-4.006-.695A4.725 4.725 0 01.695 24.54C.24 23.692 0 22.852 0 20.534V5.87c0-1.364.241-2.363.695-3.21A4.725 4.725 0 012.66.694C3.508.24 4.507 0 5.87 0z" fill="#E6AF40"/><path d="M6.41 3.2h18.38c2.23 0 3.037.232 3.852.668a4.543 4.543 0 011.89 1.89c.436.815.668 1.623.668 3.852v11.18c0 2.23-.232 3.037-.668 3.852a4.543 4.543 0 01-1.89 1.89c-.815.436-1.623.668-3.852.668H6.41c-2.23 0-3.037-.232-3.852-.668a4.543 4.543 0 01-1.89-1.89C.232 23.827 0 23.02 0 20.79V9.61c0-2.23.232-3.037.668-3.852a4.543 4.543 0 011.89-1.89C3.373 3.432 4.18 3.2 6.41 3.2z" fill="#FCCE72"/></g></svg>