<svg width="87" height="49" xmlns="http://www.w3.org/2000/svg"><g fill="#FFF" fill-rule="evenodd"><path d="M47 48.8c0-8.4 6.8-15.214 15.2-15.232v-.004a8.8 8.8 0 00.642-17.446l7.933-13.74C79.795 5.827 86.2 14.565 86.2 24.8c0 13.122-10.531 23.785-23.603 23.997l-.397.003H47zM39.2.777c0 8.29-6.636 15.03-14.886 15.197l-.313.004v.001C19.514 16.382 16 20.186 16 24.777a8.802 8.802 0 007.358 8.683L15.425 47.2C6.405 43.75 0 35.01 0 24.777 0 11.655 10.531.992 23.603.78L24 .777h15.2zM62.2.8c.986 0 1.959.06 2.914.175L54.889 18.686l-10.085 17.74a24.624 24.624 0 01-1.6 2.501l-.18.308-.023-.033C38.622 45.03 31.65 48.8 23.8 48.8a24.25 24.25 0 01-2.83-.165L33.62 26.728l7.496-13.402C45.185 5.863 53.101.8 62.2.8z"/></g></svg>