<?xml version="1.0" encoding="UTF-8"?>
<svg width="87px" height="49px" viewBox="0 0 87 49" version="1.1" xmlns="http://www.w3.org/2000/svg" xmlns:xlink="http://www.w3.org/1999/xlink">
    <title>编组 37</title>
    <g id="页面-1" stroke="none" stroke-width="1" fill="none" fill-rule="evenodd">
        <g id="2.项目仪表盘" transform="translate(-428.000000, -216.000000)" fill="#FFFFFF">
            <g id="编组-37" transform="translate(428.000000, 216.000000)">
                <path d="M47,48.8 C47,40.4000944 53.8000793,33.5856673 62.1999662,33.5679627 L62.1998622,33.564138 C66.685128,33.1600198 70.2,29.3904811 70.2,24.8 C70.2,20.4310875 67.0162437,16.805781 62.8422642,16.1176138 L70.7745128,2.37705013 C79.7947295,5.82845267 86.2,14.5662108 86.2,24.8 C86.2,37.9222857 75.6686628,48.5848457 62.5968839,48.7967847 L62.2,48.8 L47,48.8 Z" id="形状结合"></path>
                <path d="M5.42996759e-11,47.2000923 C5.42986607e-11,38.9102982 6.63620333,32.1704724 14.8859529,32.003272 L15.199,31.9991424 L15.1998622,31.9980923 C19.6851693,31.5956904 23.2,27.7914854 23.2,23.2000923 C23.2,18.8311797 20.0162437,15.2058733 15.8422642,14.517706 L23.7745128,0.777142387 C32.7947295,4.22854493 39.2,12.966303 39.2,23.2000923 C39.2,36.3223779 28.6686628,46.984938 15.5968839,47.1968769 L15.2,47.2000923 L5.42996759e-11,47.2000923 Z" id="形状结合" transform="translate(19.600000, 23.988617) scale(-1, -1) translate(-19.600000, -23.988617) "></path>
                <path d="M62.2,0.8 C63.1863662,0.8 64.1588347,0.859503282 65.1140117,0.975116084 L54.8889727,18.6861561 L44.8044968,36.4260894 C44.3199026,37.2935224 43.7857574,38.1290964 43.203546,38.9273773 L43.0248748,39.2353889 L43.0006277,39.2015043 C38.621968,45.0299929 31.6512501,48.8 23.8,48.8 C22.8428215,48.8 21.8987304,48.7439662 20.970828,48.6349998 L33.618828,26.728 L33.6182069,26.7282032 L41.1151134,13.3262896 C45.184762,5.8634386 53.1010663,0.8 62.2,0.8 Z" id="形状结合"></path>
            </g>
        </g>
    </g>
</svg>