<svg width="195" height="195" xmlns="http://www.w3.org/2000/svg"><g fill="none" fill-rule="evenodd"><circle fill="none" opacity=".1" cx="95" cy="97" r="85"/><g fill="#CCC" fill-rule="nonzero"><path d="M57 93.396l5.255 7.04 17.43-13.128c.482-.405.482-.405.885-.898 1.28-3.387 1.28-3.387-.893-6.282L62.255 67 57 74.039l12.85 9.679L57 93.396zm76.991 0l-5.255 7.04-17.422-13.128c-.481-.405-.481-.405-.893-.898-1.279-3.387-1.279-3.387.893-6.282L128.744 67 134 74.039l-12.85 9.679L134 93.396h-.009zM114.301 136l5.474-6.863-21.844-17.554c-2.786-1.32-2.786-1.32-5.58 0l-21.845 17.554L75.981 136l19.164-15.398L114.301 136z"/><path d="M95 158.25c33.827 0 61.25-27.423 61.25-61.25S128.827 35.75 95 35.75 33.75 63.173 33.75 97 61.173 158.25 95 158.25zm0 8.75c-38.66 0-70-31.34-70-70s31.34-70 70-70 70 31.34 70 70-31.34 70-70 70z"/></g></g></svg>