<?xml version="1.0" encoding="UTF-8"?>
<svg width="195px" height="195px" viewBox="0 0 195 195" version="1.1" xmlns="http://www.w3.org/2000/svg" xmlns:xlink="http://www.w3.org/1999/xlink">
    <title>未找到</title>
    <g id="页面-1" stroke="none" stroke-width="1" fill="none" fill-rule="evenodd">
        <g id="1.1首页-收藏+其他备份-4" transform="translate(-623.000000, -307.000000)">
            <g id="未找到" transform="translate(623.000000, 307.000000)">
                <circle id="椭圆形" fill-opacity="0" fill="#236EFF" opacity="0.100000001" cx="95" cy="97" r="85"></circle>
                <g id="not-interested" transform="translate(25.000000, 27.000000)" fill="#CCCCCC" fill-rule="nonzero">
                    <path d="M32,66.3963275 L37.2553748,73.4353481 L54.6857013,60.3075746 C55.167444,59.9028309 55.167444,59.9028309 55.570356,59.4100995 C56.8491639,56.0225708 56.8491639,56.0225708 54.6769423,53.1277735 L37.2553748,40 L32,47.0390207 L44.8493914,56.7176741 L32,66.3963275 Z M108.991241,66.3963275 L103.735866,73.4353481 L86.3142987,60.3075746 C85.832556,59.9028309 85.832556,59.9028309 85.420885,59.4100995 C84.1420771,56.0225708 84.1420771,56.0225708 86.3142987,53.1277735 L103.744625,40 L109,47.0390207 L96.1506086,56.7176741 L109,66.3963275 L108.991241,66.3963275 Z M89.3011034,109 L94.7754522,102.136955 L72.9306109,84.5833971 C70.1452622,83.2635807 70.1452622,83.2635807 67.3511546,84.5833971 L45.5063133,102.136955 L50.980662,109 L70.1452622,93.6021423 L89.3011034,109 L89.3011034,109 Z" id="形状"></path>
                    <path d="M70,131.25 C103.827441,131.25 131.25,103.827441 131.25,70 C131.25,36.1725591 103.827441,8.75 70,8.75 C36.1725591,8.75 8.75,36.1725591 8.75,70 C8.75,103.827441 36.1725591,131.25 70,131.25 Z M70,140 C31.3400675,140 0,108.659932 0,70 C0,31.3400675 31.3400675,0 70,0 C108.659932,0 140,31.3400675 140,70 C140,108.659932 108.659932,140 70,140 Z" id="形状"></path>
                </g>
            </g>
        </g>
    </g>
</svg>