<?xml version="1.0" encoding="UTF-8"?>
<svg width="24px" height="24px" viewBox="0 0 24 24" version="1.1" xmlns="http://www.w3.org/2000/svg" xmlns:xlink="http://www.w3.org/1999/xlink">
    <title>插件-icon</title>
    <g id="插件-icon" stroke="none" stroke-width="1" fill="none" fill-rule="evenodd" stroke-linejoin="round">
        <g id="编组-19" fill-rule="nonzero" stroke="#FFFFFF" stroke-width="2">
            <path d="M9.27380028,2 C11.2819391,2 12.9098573,3.6279182 12.9098573,5.63605706 C12.9098573,6.29879272 12.7325504,6.92011612 12.4227851,7.45517863 L15.5459144,7.45408559 C16.0981992,7.45408559 16.5459144,7.90180084 16.5459144,8.45408559 L16.5458272,11.5766328 C17.0806625,11.2672275 17.7016225,11.0901427 18.3639429,11.0901427 C20.3720818,11.0901427 22,12.7180609 22,14.7261997 C22,16.7343386 20.3720818,18.3622568 18.3639429,18.3622568 C17.7016225,18.3622568 17.0806625,18.1851719 16.5458272,17.8757667 L16.5459144,20.9983138 C16.5459144,21.5505986 16.0981992,21.9983138 15.5459144,21.9983138 L3.00168616,21.9983138 C2.44940141,21.9983138 2.00168616,21.5505986 2.00168616,20.9983138 L2.00052114,17.1299712 C2.6668065,17.8856008 3.64210324,18.3622568 4.72872895,18.3622568 C6.73686782,18.3622568 8.36478601,16.7343386 8.36478601,14.7261997 C8.36478601,12.7180609 6.73686782,11.0901427 4.72872895,11.0901427 C3.6419942,11.0901427 2.66661076,11.5668943 2.00032056,12.3226557 L2.00168616,8.45408559 C2.00168616,7.90180084 2.44940141,7.45408559 3.00168616,7.45408559 L6.12481546,7.45517863 C5.81505017,6.92011612 5.63774322,6.29879272 5.63774322,5.63605706 C5.63774322,3.6279182 7.26566142,2 9.27380028,2 Z" id="形状结合"></path>
        </g>
    </g>
</svg>