<?xml version="1.0" encoding="UTF-8"?>
<svg width="27px" height="27px" viewBox="0 0 27 27" version="1.1" xmlns="http://www.w3.org/2000/svg" xmlns:xlink="http://www.w3.org/1999/xlink">
    <title>未收藏-icon</title>
    <g id="未收藏-icon" stroke="none" stroke-width="1" fill="none" fill-rule="evenodd">
        <g fill-rule="nonzero" id="收-藏" stroke="#666666" stroke-width="2">
            <g transform="translate(6.000000, 6.600000)">
                <path d="M11.5348518,13.8 C11.3725857,13.8 11.1832752,13.7482176 11.021009,13.6705441 L7.50524236,11.9876173 L3.96243136,13.6705441 C3.61085469,13.8517824 3.15110059,13.8258912 2.82656829,13.5928705 C2.50203598,13.3598499 2.31272547,12.945591 2.39385855,12.5572233 L3.12405624,8.93245779 L0.338487278,6.44690432 C0.0409993315,6.16210131 -0.0671781037,5.72195122 0.0409993315,5.35947467 C0.176221126,4.97110694 0.500753431,4.68630394 0.933463172,4.63452158 L4.80080648,3.96135084 L6.53164544,0.595497186 C6.72095596,0.233020638 7.09957698,0 7.50524236,0 C7.91090774,0 8.31657313,0.233020638 8.47883928,0.595497186 L10.2096782,3.96135084 L14.0770216,4.60863039 C14.4826869,4.66041276 14.8342636,4.94521576 14.942441,5.33358349 C15.0776628,5.72195122 14.9694854,6.13621013 14.6719974,6.42101313 L11.8864285,8.93245779 L12.5895818,12.5572233 C12.6707149,12.9714822 12.4814044,13.3598499 12.1568721,13.5928705 C11.9946059,13.7223265 11.7782511,13.8 11.5348518,13.8 Z" id="路径"></path>
            </g>
        </g>
    </g>
</svg>