<svg width="27" height="27" viewBox="0 0 27 27" xmlns="http://www.w3.org/2000/svg"><g fill="none" fill-rule="nonzero" stroke-width="2"><path d="M17.535 20.4c-.162 0-.352-.052-.514-.13l-3.516-1.682-3.543 1.683a1.119 1.119 0 0 1-1.135-.078c-.325-.233-.514-.647-.433-1.036l.73-3.625-2.786-2.485a1.106 1.106 0 0 1-.297-1.088c.135-.388.46-.673.892-.724l3.868-.674 1.73-3.366c.19-.362.569-.595.974-.595.406 0 .812.233.974.595l1.73 3.366 3.868.648c.406.051.757.336.865.725.136.388.027.802-.27 1.087l-2.786 2.511.704 3.625c.08.414-.109.803-.433 1.036a.991.991 0 0 1-.622.207z" stroke="#666"/><path d="M17.535 20.4c-.162 0-.352-.052-.514-.13l-3.516-1.682-3.543 1.683a1.119 1.119 0 0 1-1.135-.078c-.325-.233-.514-.647-.433-1.036l.73-3.625-2.786-2.485a1.106 1.106 0 0 1-.297-1.088c.135-.388.46-.673.892-.724l3.868-.674 1.73-3.366c.19-.362.569-.595.974-.595.406 0 .812.233.974.595l1.73 3.366 3.868.648c.406.051.757.336.865.725.136.388.027.802-.27 1.087l-2.786 2.511.704 3.625c.08.414-.109.803-.433 1.036a.991.991 0 0 1-.622.207z" stroke="#FFF"/></g></svg>