<?xml version="1.0" encoding="UTF-8"?>
<svg width="36px" height="38px" viewBox="0 0 36 38" version="1.1" xmlns="http://www.w3.org/2000/svg" xmlns:xlink="http://www.w3.org/1999/xlink">
    <title>编组 13</title>
    <g id="页面-1" stroke="none" stroke-width="1" fill="none" fill-rule="evenodd">
        <g id="San-CLI-3" transform="translate(-20.000000, -19.000000)" fill="#2196f3">
            <g id="编组-13" transform="translate(20.000000, 19.000000)">
                <path d="M0.1875,-0.000206070112 C10.1286255,-0.000206070112 18.1875,8.67651548 18.1875,19.3797939 C18.1875,19.5068627 18.1863642,19.6336458 18.1841028,19.7601321 L9.05014376,19.7605563 C9.05474372,19.6342502 9.05706522,19.5073139 9.05706522,19.3797939 C9.05706522,14.1057147 5.08602561,9.83022871 0.1875,9.83022871 L0.1875,-0.000206070112 L0.1875,-0.000206070112 Z" id="形状结合"></path>
                <path d="M35.4375175,19.3625145 C35.4375175,19.4895832 35.4363816,19.6163663 35.4341203,19.7428527 L26.3001839,19.7426529 C26.3047688,19.6165527 26.3070827,19.4898245 26.3070827,19.3625145 C26.3070827,14.3605108 22.7351856,10.2567283 18.1878,9.8466338 L18.1875,-0.000968406166 C27.7808196,0.422360452 35.4375175,8.92972649 35.4375175,19.3625145 Z" id="形状结合备份" transform="translate(26.812509, 9.871154) scale(-1, -1) translate(-26.812509, -9.871154) "></path>
                <path d="M0.1875,18.2397939 C10.1286255,18.2397939 18.1875,26.9165155 18.1875,37.6197939 C18.1875,37.7465274 18.1863701,37.8729767 18.1841207,37.9991309 L9.05018012,37.9995565 C9.05475596,37.8735803 9.05706522,37.7469775 9.05706522,37.6197939 C9.05706522,32.3457147 5.08602561,28.0702287 0.1875,28.0702287 L0.1875,18.2397939 L0.1875,18.2397939 Z" id="形状结合备份-3"></path>
                <path d="M35.4375175,37.6025145 C35.4375175,37.7295832 35.4363816,37.8563663 35.4341203,37.9828527 L26.3001839,37.9826529 C26.3047688,37.8565527 26.3070827,37.7298245 26.3070827,37.6025145 C26.3070827,32.6005108 22.7351856,28.4967283 18.1878,28.0866338 L18.1875,18.2390316 C27.7808196,18.6623605 35.4375175,27.1697265 35.4375175,37.6025145 Z" id="形状结合备份-2" transform="translate(26.812509, 28.111154) scale(-1, -1) translate(-26.812509, -28.111154) "></path>
            </g>
        </g>
    </g>
</svg>
